<svg width="83" height="83" viewBox="0 0 83 83" fill="none" xmlns="http://www.w3.org/2000/svg">
<path d="M6.41667 82.2273L0 75.8318L46.9792 29.008C45.6042 25.8102 45.4132 22.1938 46.4063 18.1585C47.3993 14.1233 49.5764 10.5068 52.9375 7.3091C56.9861 3.27388 61.4931 0.913651 66.4583 0.228424C71.4236 -0.456803 75.4722 0.761381 78.6042 3.88297C81.7361 7.00456 82.9583 11.0398 82.2708 15.9887C81.5833 20.9375 79.2153 25.4296 75.1667 29.4648C71.9583 32.8148 68.3299 34.9847 64.2813 35.9744C60.2326 36.9642 56.6042 36.7739 53.3958 35.4034L47.6667 41.1137L82.5 75.8318L76.0833 82.2273L41.25 47.7375L6.41667 82.2273ZM19.9375 43.1693L6.1875 29.4648C2.0625 25.3534 0 20.4426 0 14.7324C0 9.02217 2.0625 4.11138 6.1875 1.52588e-05L34.6042 28.5512L19.9375 43.1693Z" fill="#7F13EC"/>
</svg>
